<?xml version="1.0" encoding="UTF-8" standalone="no"?>
<!DOCTYPE svg PUBLIC "-//W3C//DTD SVG 1.1//EN" "http://www.w3.org/Graphics/SVG/1.1/DTD/svg11.dtd">
<svg xmlns="http://www.w3.org/2000/svg" version="1.1" viewBox="0.00 0.00 1082.00 1280.00">
<g fill="#eecb45">
<path d="
  M 967.83 802.63
  A 0.08 0.08 0.0 0 1 967.84 802.78
  Q 948.15 807.73 932.50 811.36
  Q 925.84 812.91 919.93 813.72
  C 913.31 814.63 908.66 815.60 903.00 815.73
  C 897.25 815.86 889.73 816.99 883.15 816.96
  Q 874.90 816.92 874.00 816.86
  Q 847.92 815.12 831.58 811.87
  Q 816.85 808.94 801.78 805.21
  Q 798.68 804.44 794.38 803.84
  A 5.20 5.16 42.1 0 0 792.44 803.93
  C 784.96 805.76 778.29 808.17 771.30 809.65
  Q 751.85 813.78 741.87 814.82
  Q 731.13 815.95 730.27 816.05
  Q 721.46 817.08 718.68 816.96
  Q 717.34 816.90 708.89 817.42
  Q 705.66 817.62 699.11 817.43
  Q 680.26 816.91 666.74 815.03
  Q 661.82 814.34 645.74 811.00
  Q 633.97 808.56 625.03 805.46
  Q 606.27 798.95 598.25 795.03
  Q 586.63 789.37 570.06 778.62
  Q 565.30 775.53 558.24 769.76
  Q 549.84 762.88 546.77 760.20
  Q 537.07 751.71 524.96 737.77
  Q 508.30 718.58 493.16 697.09
  Q 461.77 652.51 435.72 617.77
  Q 423.95 602.07 412.08 589.43
  C 408.02 585.11 403.35 580.60 397.79 577.25
  Q 388.98 571.95 380.39 568.93
  Q 378.27 568.19 367.02 566.52
  Q 364.72 566.17 354.49 566.29
  C 339.07 566.48 324.42 569.76 310.90 564.63
  A 0.66 0.65 -39.8 0 1 311.02 563.37
  C 314.49 562.73 318.22 562.32 322.36 562.20
  Q 346.86 561.50 365.75 559.92
  Q 377.01 558.97 393.80 556.15
  C 408.92 553.62 423.61 548.66 438.20 543.19
  C 448.78 539.23 457.48 533.41 466.93 527.33
  Q 474.40 522.52 481.23 516.12
  Q 509.05 490.08 521.44 453.96
  Q 524.22 445.85 527.14 435.19
  Q 530.06 424.52 531.45 416.05
  C 540.21 362.69 533.91 306.88 507.95 259.70
  Q 486.79 221.25 451.97 196.05
  Q 440.66 187.86 423.10 179.29
  Q 415.18 175.42 406.14 173.11
  Q 392.24 169.56 388.51 168.77
  Q 385.73 168.18 371.03 166.57
  Q 362.51 165.63 353.46 165.87
  Q 334.02 166.37 326.76 167.27
  C 315.37 168.69 300.22 171.14 287.60 175.17
  Q 251.28 186.76 224.61 209.13
  Q 178.50 247.81 162.42 306.23
  C 158.38 320.91 156.37 336.94 155.30 352.75
  Q 154.87 359.05 155.79 368.75
  Q 156.87 380.08 157.89 386.46
  C 160.92 405.47 166.47 424.94 174.91 442.09
  C 183.07 458.66 193.74 475.02 207.04 488.97
  Q 209.79 491.85 219.19 500.98
  Q 222.35 504.06 225.47 506.59
  Q 227.73 508.43 231.91 511.56
  Q 234.28 513.33 236.30 515.50
  A 3.33 3.03 81.4 0 0 237.04 516.10
  Q 240.50 518.20 243.39 521.06
  A 0.11 0.10 43.0 0 1 243.40 521.20
  L 243.29 521.33
  A 0.01 0.01 0.0 0 1 243.27 521.32
  Q 243.38 521.12 234.85 514.97
  C 231.03 512.22 228.15 509.38 224.43 506.98
  Q 221.87 505.34 220.24 503.82
  Q 204.78 489.44 201.56 485.77
  Q 179.36 460.57 168.53 432.29
  Q 160.21 410.59 157.00 390.75
  Q 155.46 381.28 154.34 368.75
  Q 153.65 361.16 153.93 353.76
  Q 154.56 336.50 158.51 314.78
  Q 159.52 309.24 160.93 304.84
  C 162.43 300.19 163.29 295.80 164.80 291.72
  Q 173.98 266.91 186.93 247.90
  Q 190.85 242.14 198.66 232.55
  Q 204.50 225.37 211.82 218.36
  C 233.02 198.10 259.48 181.86 287.68 173.15
  C 294.65 171.00 299.18 169.10 305.18 167.89
  Q 330.00 162.91 343.76 162.13
  Q 367.39 160.80 390.83 164.05
  Q 396.96 164.90 405.22 166.84
  C 416.00 169.37 419.89 169.98 426.89 172.37
  C 448.92 179.89 469.34 189.87 487.29 203.38
  Q 524.20 231.14 544.29 271.09
  Q 559.87 302.07 564.98 340.04
  C 569.50 373.72 567.01 409.05 555.86 441.51
  Q 551.07 455.44 542.88 469.02
  Q 528.79 492.39 510.92 508.41
  Q 477.72 538.16 434.83 552.59
  C 427.33 555.11 419.71 556.17 412.51 558.96
  Q 408.16 560.65 406.40 560.81
  A 1.01 1.01 0.0 0 0 405.85 562.59
  C 410.74 566.64 418.66 566.84 424.44 569.86
  C 434.71 575.24 444.04 580.32 452.49 587.46
  Q 456.19 590.58 461.38 597.77
  Q 477.56 620.14 534.85 698.73
  C 541.00 707.17 546.85 715.93 551.65 722.59
  Q 570.98 749.38 595.49 770.92
  Q 602.26 776.87 608.97 781.51
  C 618.22 787.91 627.25 794.06 637.87 798.91
  C 665.04 811.31 696.06 817.46 725.94 814.63
  Q 733.74 813.89 753.59 811.56
  Q 761.31 810.65 767.98 808.85
  Q 773.26 807.42 782.05 804.69
  C 783.86 804.13 785.53 803.94 787.21 804.07
  A 1.13 1.13 0.0 0 0 788.16 802.22
  Q 785.66 799.23 782.05 797.26
  C 766.56 788.81 751.35 780.13 737.31 769.21
  C 718.37 754.49 700.49 735.82 684.85 714.90
  C 672.09 697.85 659.03 678.65 648.94 664.80
  Q 634.43 644.89 617.47 622.87
  C 607.90 610.45 598.32 594.15 586.27 582.59
  Q 577.87 574.51 564.24 569.59
  Q 557.12 567.01 542.63 566.33
  Q 524.08 565.46 508.95 565.71
  C 502.00 565.82 494.63 565.50 488.32 563.42
  A 0.71 0.70 -60.5 0 1 488.01 562.29
  Q 488.77 561.40 490.24 561.17
  C 504.01 559.01 516.94 558.27 532.30 558.51
  Q 539.50 558.62 556.75 557.52
  Q 579.49 556.07 599.96 548.21
  Q 600.95 547.84 616.30 542.03
  C 641.02 532.69 661.60 515.42 677.56 494.14
  Q 687.56 480.82 695.05 463.71
  C 714.51 419.25 717.62 368.16 708.08 320.81
  C 705.16 306.33 700.66 289.18 694.89 275.71
  C 680.58 242.28 657.73 213.36 627.80 192.67
  C 614.02 183.15 597.91 175.52 581.92 171.51
  Q 568.34 168.11 555.26 166.97
  Q 536.24 165.32 518.00 164.98
  Q 517.11 164.97 516.62 164.78
  A 0.47 0.47 0.0 0 1 516.56 163.92
  Q 518.81 162.73 521.89 162.41
  Q 549.51 159.59 576.51 164.78
  Q 595.64 168.46 608.87 172.43
  C 625.65 177.48 642.01 185.57 655.97 194.34
  Q 668.17 202.01 678.06 211.69
  C 685.96 219.43 694.30 228.13 700.98 237.37
  Q 718.87 262.11 728.92 287.79
  C 749.78 341.12 751.95 403.42 727.11 455.75
  Q 706.27 499.68 664.75 526.69
  Q 650.38 536.04 637.35 541.82
  Q 631.36 544.48 624.28 547.46
  C 612.16 552.55 601.21 555.90 589.19 558.95
  Q 585.39 559.91 582.54 562.14
  A 0.63 0.63 0.0 0 0 582.80 563.25
  C 594.12 565.62 604.49 569.24 614.90 575.36
  Q 622.81 580.01 631.89 589.11
  Q 641.56 598.82 648.72 608.77
  C 652.79 614.42 658.18 622.51 663.05 629.14
  Q 699.09 678.16 714.53 699.40
  C 721.11 708.45 726.29 714.79 732.35 723.96
  Q 733.57 725.80 736.04 728.72
  Q 749.86 744.99 766.57 761.44
  C 781.43 776.07 797.99 789.04 816.92 798.68
  Q 824.15 802.36 831.12 804.45
  C 847.44 809.37 859.80 812.55 875.01 813.04
  Q 890.82 813.53 892.60 813.60
  Q 911.30 814.27 927.27 810.69
  Q 957.74 803.86 964.69 802.68
  Q 965.79 802.49 967.83 802.63
  Z"
/>
<path d="
  M 323.97 915.49
  Q 326.99 918.15 321.75 922.79
  Q 317.04 926.96 311.88 930.61
  Q 310.87 931.33 310.41 930.92
  Q 309.94 930.51 310.52 929.41
  Q 313.49 923.83 317.02 918.63
  Q 320.95 912.84 323.97 915.49
  Z"
/>
<path d="
  M 833.99 917.15
  Q 834.03 920.06 831.43 922.05
  Q 825.60 926.52 820.56 931.20
  A 0.66 0.66 0.0 0 1 819.45 930.64
  Q 819.68 928.90 820.69 927.20
  Q 822.76 923.72 825.73 918.75
  Q 827.03 916.59 829.29 915.26
  C 831.09 914.20 832.24 915.12 833.56 916.24
  A 1.23 1.22 19.9 0 1 833.99 917.15
  Z"
/>
<path d="
  M 114.86 958.39
  C 116.57 936.02 133.63 923.65 155.41 925.32
  C 177.19 926.98 192.18 941.80 190.47 964.17
  C 188.76 986.55 171.69 998.92 149.91 997.25
  C 128.13 995.58 113.14 980.76 114.86 958.39
  Z
  M 126.47 961.54
  C 126.53 978.79 132.52 995.08 152.71 995.01
  C 172.91 994.93 178.78 978.61 178.72 961.35
  C 178.66 944.10 172.67 927.81 152.48 927.88
  C 132.28 927.95 126.41 944.28 126.47 961.54
  Z"
/>
<path d="
  M 243.92 967.83
  A 0.81 0.80 74.1 0 1 244.60 966.60
  L 273.70 966.46
  A 0.85 0.84 13.5 0 1 274.46 967.69
  L 274.34 967.93
  A 2.17 2.17 0.0 0 1 272.57 969.01
  C 265.23 969.37 265.32 971.85 264.82 978.74
  Q 264.36 985.03 264.66 990.90
  A 0.58 0.57 -6.7 0 1 264.18 991.50
  Q 255.75 993.00 243.79 996.54
  Q 240.84 997.42 234.94 997.31
  C 206.22 996.79 193.31 967.60 205.65 943.56
  Q 215.51 924.35 238.97 925.26
  Q 245.78 925.53 252.04 929.30
  C 254.20 930.60 256.67 933.18 259.11 934.06
  A 1.05 1.05 0.0 0 0 260.51 933.23
  C 260.88 930.72 261.07 928.21 261.94 927.49
  A 1.29 1.27 68.9 0 1 264.02 928.43
  Q 264.46 936.68 263.99 950.28
  A 1.35 1.34 41.3 0 1 261.32 950.45
  Q 259.71 940.71 253.60 934.44
  C 246.76 927.42 235.57 926.01 226.90 930.06
  C 218.99 933.75 215.43 940.33 213.91 948.65
  C 212.13 958.36 212.19 970.93 216.07 980.70
  C 218.64 987.15 224.59 993.35 231.74 994.51
  Q 240.38 995.90 247.25 992.82
  C 254.26 989.68 254.78 983.12 254.58 976.05
  C 254.36 968.35 250.14 969.92 244.85 968.21
  Q 243.98 967.92 243.92 967.83
  Z"
/>
<path d="
  M 499.75 925.20
  C 521.59 925.46 537.50 939.29 537.23 961.72
  C 536.96 984.16 520.73 997.60 498.89 997.34
  C 477.04 997.08 461.13 983.25 461.40 960.81
  C 461.67 938.38 477.90 924.94 499.75 925.20
  Z
  M 473.13 961.40
  C 473.11 978.64 479.01 994.95 499.20 994.97
  C 519.38 995.00 525.33 978.71 525.35 961.46
  C 525.37 944.22 519.47 927.91 499.28 927.89
  C 479.10 927.86 473.15 944.16 473.13 961.40
  Z"
/>
<path d="
  M 906.04 967.69
  L 906.05 967.67
  A 1.01 1.01 0.0 0 1 906.94 966.92
  C 914.49 966.23 921.76 966.50 935.99 966.68
  A 0.84 0.84 0.0 0 1 936.82 967.52
  L 936.82 967.84
  A 0.59 0.58 86.1 0 1 936.32 968.42
  Q 928.54 969.60 927.58 972.40
  A 1.04 0.55 73.2 0 0 927.55 972.55
  L 926.57 991.33
  A 0.57 0.57 0.0 0 1 926.00 991.87
  Q 923.18 991.83 920.99 992.45
  Q 912.14 994.97 907.64 996.12
  C 894.46 999.50 880.38 995.99 871.43 985.60
  C 861.20 973.74 861.11 956.49 868.39 942.67
  C 874.65 930.78 886.38 924.78 899.63 925.19
  C 908.14 925.45 915.92 928.81 921.40 934.95
  A 0.75 0.75 0.0 0 0 922.70 934.50
  L 923.03 928.94
  A 1.42 1.42 0.0 0 1 924.45 927.60
  L 925.07 927.60
  A 1.15 1.15 0.0 0 1 926.22 928.75
  L 926.22 950.26
  A 0.90 0.90 0.0 0 1 925.27 951.16
  L 924.73 951.12
  A 1.33 1.32 86.7 0 1 923.50 950.02
  C 921.28 937.59 913.22 928.35 900.24 927.85
  C 888.84 927.41 879.61 934.47 876.94 945.50
  Q 872.99 961.81 877.40 978.14
  C 879.30 985.16 885.00 992.06 892.18 993.97
  Q 902.03 996.59 909.98 992.56
  C 915.85 989.59 916.94 984.43 916.87 978.43
  Q 916.81 973.33 916.22 972.14
  Q 914.52 968.68 906.59 968.42
  A 0.59 0.58 -82.1 0 1 906.04 967.69
  Z"
/>
<path d="
  M 982.47 958.90
  C 983.87 936.50 1000.77 923.90 1022.58 925.26
  C 1044.38 926.63 1059.57 941.25 1058.17 963.65
  C 1056.76 986.05 1039.87 998.65 1018.06 997.28
  C 996.25 995.91 981.06 981.30 982.47 958.90
  Z
  M 994.13 961.41
  C 994.11 978.66 1000.02 994.97 1020.21 994.99
  C 1040.41 995.01 1046.35 978.71 1046.37 961.46
  C 1046.38 944.21 1040.47 927.90 1020.28 927.88
  C 1000.09 927.86 994.15 944.16 994.13 961.41
  Z"
/>
<path d="
  M 56.41 962.80
  A 0.78 0.77 -4.4 0 0 55.75 963.56
  Q 55.73 969.57 55.85 982.32
  Q 55.91 989.03 57.10 991.77
  A 2.04 2.01 -85.8 0 0 57.82 992.62
  C 60.22 994.20 63.85 994.35 66.61 994.30
  A 1.01 1.00 -89.3 0 1 67.64 995.36
  L 67.63 995.38
  A 1.06 1.05 -86.3 0 1 66.59 996.30
  L 35.20 996.31
  A 0.84 0.83 -87.6 0 1 34.37 995.40
  L 34.37 995.38
  A 1.26 1.26 0.0 0 1 35.54 994.32
  C 39.61 994.05 44.47 994.26 45.09 988.99
  C 45.53 985.29 45.84 981.61 45.84 979.00
  Q 45.82 967.44 45.78 944.36
  Q 45.77 941.52 45.53 938.77
  C 45.07 933.79 45.46 929.19 39.74 928.81
  Q 38.68 928.74 36.00 928.55
  A 1.16 1.15 -88.2 0 1 34.92 927.39
  L 34.92 927.00
  A 0.67 0.66 -86.0 0 1 35.68 926.34
  Q 38.07 926.67 41.68 926.23
  C 46.67 925.62 53.16 925.98 56.94 925.61
  C 60.42 925.26 62.90 925.86 66.63 925.82
  C 69.92 925.79 74.65 926.87 77.39 927.70
  C 85.96 930.27 91.81 936.14 90.90 945.50
  C 90.00 954.71 81.43 960.16 72.94 960.58
  A 0.75 0.75 0.0 0 0 72.48 961.89
  C 80.92 969.37 87.48 980.22 94.41 987.29
  Q 99.78 992.76 107.33 994.11
  Q 108.12 994.25 108.43 994.74
  A 0.95 0.95 0.0 0 1 107.63 996.20
  Q 102.67 996.19 93.46 996.44
  Q 89.20 996.54 86.92 993.97
  C 82.89 989.38 80.15 986.33 77.13 981.86
  Q 72.14 974.43 65.90 966.74
  Q 62.04 961.97 56.41 962.80
  Z
  M 55.74 929.19
  L 55.80 959.03
  A 1.00 1.00 0.0 0 0 56.80 960.03
  L 65.22 960.01
  A 14.60 14.10 -0.1 0 0 79.79 945.89
  L 79.79 942.25
  A 14.60 14.10 -0.1 0 0 65.16 928.17
  L 56.74 928.19
  A 1.00 1.00 0.0 0 0 55.74 929.19
  Z"
/>
<path d="
  M 365.09 963.51
  Q 365.06 969.52 365.16 982.27
  Q 365.21 988.98 366.40 991.72
  A 2.04 2.01 -85.7 0 0 367.12 992.57
  C 369.52 994.15 373.14 994.31 375.90 994.26
  A 1.01 1.00 -89.2 0 1 376.93 995.32
  L 376.92 995.34
  A 1.06 1.05 -86.3 0 1 375.88 996.26
  L 344.50 996.22
  A 0.84 0.83 -87.5 0 1 343.67 995.31
  L 343.67 995.29
  A 1.26 1.26 0.0 0 1 344.84 994.23
  C 348.91 993.97 353.77 994.19 354.40 988.92
  C 354.84 985.22 355.16 981.54 355.16 978.93
  Q 355.16 967.38 355.15 944.30
  Q 355.15 941.46 354.91 938.71
  C 354.46 933.73 354.86 929.14 349.14 928.75
  Q 348.08 928.68 345.40 928.48
  A 1.16 1.15 -88.2 0 1 344.32 927.32
  L 344.32 926.93
  A 0.67 0.66 -85.9 0 1 345.08 926.27
  Q 347.47 926.61 351.08 926.17
  C 356.07 925.57 362.56 925.94 366.34 925.57
  C 369.82 925.23 372.30 925.83 376.03 925.80
  C 379.32 925.77 384.04 926.86 386.78 927.69
  C 395.35 930.28 401.19 936.15 400.26 945.51
  C 399.35 954.72 390.77 960.15 382.28 960.56
  A 0.75 0.75 0.0 0 0 381.82 961.87
  C 390.25 969.36 396.79 980.22 403.71 987.30
  Q 409.07 992.77 416.61 994.13
  Q 417.40 994.27 417.71 994.77
  A 0.95 0.95 0.0 0 1 416.91 996.22
  Q 411.95 996.21 402.74 996.44
  Q 398.48 996.54 396.21 993.96
  C 392.19 989.37 389.45 986.31 386.44 981.84
  Q 381.46 974.41 375.24 966.71
  Q 371.38 961.93 365.75 962.75
  A 0.78 0.77 -4.4 0 0 365.09 963.51
  Z
  M 365.13 928.67
  L 365.19 959.47
  A 0.55 0.55 0.0 0 0 365.74 960.02
  L 374.02 960.01
  A 15.23 14.38 -0.1 0 0 389.22 945.60
  L 389.22 942.46
  A 15.23 14.38 -0.1 0 0 373.96 928.11
  L 365.68 928.12
  A 0.55 0.55 0.0 0 0 365.13 928.67
  Z"
/>
<path d="
  M 571.77 927.40
  L 571.78 927.37
  A 1.14 1.13 -86.6 0 1 572.85 926.42
  L 596.57 925.37
  A 0.65 0.59 47.6 0 1 596.79 925.39
  Q 597.23 925.50 606.23 926.03
  Q 610.11 926.25 615.86 928.39
  Q 624.05 931.43 626.78 938.52
  C 631.28 950.25 620.28 960.51 609.31 960.56
  A 0.56 0.56 0.0 0 0 608.89 961.48
  C 611.31 964.39 614.45 966.96 617.03 970.17
  Q 619.51 973.24 626.39 982.17
  C 630.55 987.57 636.37 993.09 643.30 993.78
  A 2.45 2.44 78.4 0 1 645.19 995.03
  L 645.27 995.19
  A 0.77 0.76 -14.0 0 1 644.59 996.32
  Q 635.94 996.29 628.09 996.28
  Q 625.69 996.28 623.19 993.55
  C 616.46 986.19 611.65 978.41 605.37 970.28
  C 602.15 966.13 598.74 961.77 593.34 962.76
  A 0.75 0.75 0.0 0 0 592.72 963.49
  Q 592.61 977.77 592.66 985.75
  C 592.67 987.61 592.88 990.77 594.47 992.53
  A 2.08 2.06 79.6 0 0 595.26 993.08
  Q 598.85 994.44 603.52 994.23
  A 0.93 0.93 0.0 0 1 604.49 995.21
  L 604.47 995.63
  A 0.71 0.71 0.0 0 1 603.76 996.30
  L 572.71 996.24
  A 1.06 1.06 0.0 0 1 571.67 995.05
  L 571.68 994.98
  A 1.25 1.25 0.0 0 1 573.09 993.93
  Q 582.16 995.16 582.16 986.19
  Q 582.16 944.50 582.09 936.25
  Q 582.07 933.66 580.86 931.25
  A 4.21 4.18 -10.0 0 0 577.56 928.96
  L 572.55 928.41
  A 0.89 0.89 0.0 0 1 571.77 927.40
  Z
  M 592.68 928.91
  L 592.78 959.31
  A 0.67 0.67 0.0 0 0 593.46 959.98
  L 601.78 959.95
  A 14.51 13.28 -0.2 0 0 616.24 946.62
  L 616.22 941.44
  A 14.51 13.28 -0.2 0 0 601.66 928.21
  L 593.34 928.24
  A 0.67 0.67 0.0 0 0 592.68 928.91
  Z"
/>
<path d="
  M 436.81 926.38
  Q 444.37 926.31 452.11 926.34
  A 0.98 0.98 0.0 0 1 453.08 927.23
  L 453.08 927.27
  A 0.93 0.92 -6.0 0 1 452.26 928.28
  L 446.79 928.83
  A 4.47 4.44 -76.1 0 0 443.51 930.82
  Q 442.33 932.63 442.16 935.78
  Q 442.03 938.32 442.01 961.28
  Q 442.00 984.24 442.14 986.78
  Q 442.30 989.93 443.48 991.74
  A 4.47 4.44 76.1 0 0 446.76 993.73
  L 452.23 994.29
  A 0.93 0.92 6.0 0 1 453.05 995.30
  L 453.05 995.34
  A 0.98 0.98 0.0 0 1 452.07 996.23
  Q 444.33 996.25 436.78 996.17
  Q 429.23 996.24 421.48 996.21
  A 0.98 0.98 0.0 0 1 420.51 995.32
  L 420.51 995.28
  A 0.93 0.92 -6.0 0 1 421.33 994.27
  L 426.80 993.72
  A 4.47 4.44 -76.1 0 0 430.08 991.73
  Q 431.26 989.92 431.43 986.77
  Q 431.57 984.23 431.58 961.27
  Q 431.59 938.31 431.46 935.77
  Q 431.29 932.63 430.11 930.82
  A 4.47 4.44 76.1 0 0 426.83 928.82
  L 421.36 928.27
  A 0.93 0.92 6.0 0 1 420.55 927.26
  L 420.55 927.22
  A 0.98 0.98 0.0 0 1 421.52 926.32
  Q 429.26 926.30 436.81 926.38
  Z"
/>
<path d="
  M 700.36 926.92
  Q 700.53 932.44 701.44 941.25
  Q 701.59 942.77 701.13 944.00
  A 0.82 0.82 0.0 0 1 699.59 944.00
  Q 698.02 939.81 697.60 938.57
  C 695.42 932.14 691.05 928.86 683.97 928.75
  Q 678.63 928.67 670.16 928.63
  A 1.10 1.09 -89.7 0 0 669.06 929.73
  L 669.06 956.89
  A 0.64 0.64 0.0 0 0 669.63 957.53
  Q 676.87 958.30 683.31 957.36
  C 686.35 956.91 686.74 952.25 687.33 948.79
  Q 687.48 947.89 687.77 947.71
  A 0.98 0.97 -16.7 0 1 689.28 948.52
  L 689.37 970.84
  A 0.94 0.94 0.0 0 1 688.20 971.75
  L 688.13 971.74
  A 0.91 0.91 0.0 0 1 687.20 970.87
  C 686.99 966.01 686.74 960.97 680.40 960.84
  Q 670.47 960.62 669.67 960.62
  A 0.51 0.51 0.0 0 0 669.15 961.12
  Q 668.61 975.93 669.88 988.64
  C 670.37 993.62 673.92 993.82 678.32 994.04
  C 688.17 994.54 697.67 993.73 702.21 983.43
  C 704.05 979.26 705.33 975.26 706.56 974.45
  A 0.88 0.87 75.2 0 1 707.91 975.24
  L 706.72 995.25
  A 1.11 1.11 0.0 0 1 705.60 996.29
  L 649.55 996.27
  A 1.05 1.05 0.0 0 1 648.51 995.33
  L 648.51 995.29
  A 0.88 0.88 0.0 0 1 649.23 994.44
  L 655.56 993.29
  A 3.41 3.41 0.0 0 0 658.32 990.44
  C 658.73 988.56 659.04 985.99 659.06 983.83
  Q 659.19 968.63 658.99 936.76
  Q 658.97 934.09 657.79 931.29
  A 3.92 3.91 -9.6 0 0 654.40 928.89
  L 651.82 928.73
  A 1.50 1.49 88.4 0 1 650.42 927.40
  L 650.39 927.13
  A 0.74 0.73 87.2 0 1 651.12 926.32
  L 699.74 926.32
  A 0.62 0.62 0.0 0 1 700.36 926.92
  Z"
/>
<path d="
  M 747.10 926.39
  A 0.64 0.64 0.0 0 1 747.72 927.19
  L 747.64 927.53
  A 1.36 1.36 0.0 0 1 746.37 928.52
  C 739.15 928.74 735.60 928.66 735.59 937.03
  Q 735.54 983.37 735.60 988.57
  C 735.63 991.16 736.75 992.79 739.46 993.39
  Q 743.18 994.21 746.00 994.16
  C 749.48 994.09 755.23 994.46 758.66 993.45
  C 766.57 991.13 768.56 983.89 771.77 976.39
  A 1.30 1.28 27.8 0 1 773.65 975.82
  Q 773.88 975.96 773.89 976.64
  Q 774.00 987.73 773.73 992.23
  Q 773.64 993.78 773.20 995.78
  A 0.62 0.61 -83.5 0 1 772.60 996.26
  L 715.03 996.26
  A 0.72 0.72 0.0 0 1 714.31 995.54
  L 714.31 995.07
  A 1.09 1.09 0.0 0 1 715.48 993.98
  C 718.42 994.18 721.18 994.11 723.36 992.17
  A 1.78 1.74 77.5 0 0 723.90 991.30
  Q 724.93 987.48 724.93 985.00
  Q 724.98 961.73 724.91 937.51
  C 724.90 929.96 722.30 928.24 715.00 928.71
  A 0.77 0.77 0.0 0 1 714.18 927.94
  L 714.18 927.13
  A 0.75 0.74 0.0 0 1 714.93 926.39
  L 747.10 926.39
  Z"
/>
<path d="
  M 963.10 961.33
  Q 963.10 984.86 963.09 985.00
  C 962.96 988.06 963.44 992.84 966.96 993.67
  Q 969.33 994.22 972.97 994.16
  A 0.88 0.87 -0.3 0 1 973.86 995.03
  L 973.86 995.50
  A 0.82 0.82 0.0 0 1 973.04 996.32
  L 943.28 996.28
  A 1.04 1.03 -1.8 0 1 942.24 995.31
  L 942.24 995.26
  A 1.08 1.07 -3.6 0 1 943.22 994.15
  L 948.02 993.70
  A 4.00 3.98 -80.4 0 0 951.29 991.37
  Q 952.21 989.35 952.31 986.25
  Q 952.39 984.17 952.39 961.33
  Q 952.39 938.50 952.32 936.41
  Q 952.22 933.31 951.30 931.29
  A 4.00 3.98 80.4 0 0 948.03 928.96
  L 943.23 928.51
  A 1.08 1.07 3.7 0 1 942.25 927.40
  L 942.25 927.35
  A 1.04 1.03 1.8 0 1 943.29 926.38
  L 973.05 926.35
  A 0.82 0.82 0.0 0 1 973.87 927.17
  L 973.87 927.64
  A 0.88 0.87 0.3 0 1 972.98 928.51
  Q 969.34 928.45 966.97 929.00
  C 963.45 929.83 962.97 934.61 963.10 937.67
  Q 963.10 937.81 963.10 961.33
  Z"
/>
<path d="
  M 819.17 932.63
  C 821.29 932.65 823.54 932.38 825.60 932.70
  C 841.97 935.26 855.38 944.56 856.70 962.32
  C 858.40 985.29 839.29 997.58 818.54 997.38
  C 797.79 997.18 778.92 984.52 781.07 961.59
  C 782.74 943.86 796.32 934.82 812.74 932.58
  C 814.81 932.29 817.05 932.61 819.17 932.63
  Z
  M 792.65 964.84
  C 792.60 981.97 799.85 995.08 818.68 995.14
  C 837.50 995.19 844.83 982.13 844.89 965.00
  C 844.94 947.87 837.69 934.76 818.86 934.70
  C 800.04 934.65 792.71 947.71 792.65 964.84
  Z"
/>
<path d="
  M 337.37 996.25
  L 280.98 996.25
  A 0.99 0.99 0.0 0 1 280.00 995.37
  L 279.95 994.93
  A 0.54 0.54 0.0 0 1 280.43 994.34
  L 286.65 993.68
  A 3.39 3.37 -80.8 0 0 289.38 991.70
  Q 290.25 989.78 290.28 987.50
  Q 290.36 979.64 290.22 942.25
  Q 290.21 939.70 289.11 937.57
  A 2.78 2.78 0.0 0 0 286.90 936.08
  Q 282.58 935.69 281.77 935.51
  Q 281.40 935.42 281.24 935.07
  A 0.90 0.86 -14.6 0 1 281.99 933.86
  Q 284.80 933.56 286.71 933.58
  Q 308.07 933.79 330.70 933.48
  A 0.93 0.93 0.0 0 1 331.65 934.31
  L 333.10 947.97
  A 0.93 0.93 0.0 0 1 332.06 949.00
  L 331.80 948.97
  A 1.78 1.77 84.4 0 1 330.14 947.60
  C 329.06 943.02 326.80 938.93 322.34 936.95
  Q 319.77 935.81 314.00 935.88
  Q 307.29 935.96 302.02 935.74
  A 1.07 1.07 0.0 0 0 300.90 936.81
  L 300.90 960.74
  A 0.99 0.99 0.0 0 0 301.94 961.73
  Q 305.75 961.55 313.10 961.38
  C 318.46 961.25 318.49 955.92 318.90 952.33
  A 0.89 0.89 0.0 0 1 320.60 952.09
  Q 321.25 953.61 321.30 956.25
  Q 321.32 957.19 321.14 973.43
  Q 321.13 974.54 320.18 974.80
  A 0.91 0.87 -12.1 0 1 319.04 974.10
  C 318.50 970.22 318.25 964.93 313.27 964.51
  Q 309.32 964.17 301.44 964.33
  A 0.56 0.55 -0.5 0 0 300.89 964.88
  Q 300.85 978.23 300.94 986.00
  C 300.98 989.90 301.95 993.96 306.76 994.05
  Q 311.76 994.13 320.00 993.92
  C 329.58 993.67 334.29 984.98 336.98 977.05
  A 1.27 1.27 0.0 0 1 339.13 976.61
  Q 339.43 976.95 339.37 977.70
  Q 338.42 990.86 338.00 995.67
  A 0.63 0.63 0.0 0 1 337.37 996.25
  Z"
/>
<rect x="247.35" y="1040.83" width="632.78" height="3.10" rx="1.54"/>
</g>
</svg>
